<svg width="24" height="24" viewBox="0 0 24 24" fill="none" xmlns="http://www.w3.org/2000/svg">
    <mask id="mask0_3_38" style="mask-type:alpha" maskUnits="userSpaceOnUse" x="0" y="0" width="24" height="24">
    <rect width="24" height="24" fill="#FFFFFF"/>
    </mask>
    <g mask="url(#mask0_3_38)">
        <path d="M9.12505 21.1L0.700049 12.7C0.600049 12.6 0.529215 12.4917 0.487549 12.375C0.445882 12.2584 0.425049 12.1334 0.425049 12C0.425049 11.8667 0.445882 11.7417 0.487549 11.625C0.529215 11.5084 0.600049 11.4 0.700049 11.3L9.12505 2.87502C9.35838 2.64169 9.65005 2.52502 10 2.52502C10.35 2.52502 10.65 2.65002 10.9 2.90002C11.15 3.15002 11.275 3.44169 11.275 3.77502C11.275 4.10836 11.15 4.40002 10.9 4.65002L3.55005 12L10.9 19.35C11.1334 19.5834 11.25 19.8709 11.25 20.2125C11.25 20.5542 11.125 20.85 10.875 21.1C10.625 21.35 10.3334 21.475 10 21.475C9.66672 21.475 9.37505 21.35 9.12505 21.1Z" fill="white"/>
    </g>
</svg>
