<svg width="24" height="24" viewBox="0 0 24 24" fill="none" xmlns="http://www.w3.org/2000/svg">
    <mask id="mask0_3_51" style="mask-type:alpha" maskUnits="userSpaceOnUse" x="0" y="0" width="24" height="24">
    <rect width="24" height="24" fill="#FFFFFF"/>
    </mask>
    <g mask="url(#mask0_3_51)">
        <path d="M9.075 13H3C2.71667 13 2.47917 12.9041 2.2875 12.7125C2.09583 12.5208 2 12.2833 2 12C2 11.7166 2.09583 11.4791 2.2875 11.2875C2.47917 11.0958 2.71667 11 3 11H9.075L6.75 8.64998C6.56667 8.46664 6.47083 8.23748 6.4625 7.96248C6.45417 7.68748 6.55 7.44998 6.75 7.24998C6.93333 7.06664 7.16667 6.97498 7.45 6.97498C7.73333 6.97498 7.96667 7.06664 8.15 7.24998L12.2 11.3C12.4 11.5 12.5 11.7333 12.5 12C12.5 12.2666 12.4 12.5 12.2 12.7L8.15 16.75C7.96667 16.9333 7.7375 17.0291 7.4625 17.0375C7.1875 17.0458 6.95 16.95 6.75 16.75C6.56667 16.5666 6.475 16.3333 6.475 16.05C6.475 15.7666 6.56667 15.5333 6.75 15.35L9.075 13ZM14 8.99998C13.7167 8.99998 13.4792 8.90414 13.2875 8.71248C13.0958 8.52081 13 8.28331 13 7.99998C13 7.71664 13.0958 7.47914 13.2875 7.28748C13.4792 7.09581 13.7167 6.99998 14 6.99998H21C21.2833 6.99998 21.5208 7.09581 21.7125 7.28748C21.9042 7.47914 22 7.71664 22 7.99998C22 8.28331 21.9042 8.52081 21.7125 8.71248C21.5208 8.90414 21.2833 8.99998 21 8.99998H14ZM14 17C13.7167 17 13.4792 16.9041 13.2875 16.7125C13.0958 16.5208 13 16.2833 13 16C13 15.7166 13.0958 15.4791 13.2875 15.2875C13.4792 15.0958 13.7167 15 14 15H21C21.2833 15 21.5208 15.0958 21.7125 15.2875C21.9042 15.4791 22 15.7166 22 16C22 16.2833 21.9042 16.5208 21.7125 16.7125C21.5208 16.9041 21.2833 17 21 17H14ZM17 13C16.7167 13 16.4792 12.9041 16.2875 12.7125C16.0958 12.5208 16 12.2833 16 12C16 11.7166 16.0958 11.4791 16.2875 11.2875C16.4792 11.0958 16.7167 11 17 11H21C21.2833 11 21.5208 11.0958 21.7125 11.2875C21.9042 11.4791 22 11.7166 22 12C22 12.2833 21.9042 12.5208 21.7125 12.7125C21.5208 12.9041 21.2833 13 21 13H17Z" fill="white"/>
    </g>
</svg>
