<svg width="20" height="20" viewBox="0 0 20 20" fill="none" xmlns="http://www.w3.org/2000/svg">
    <mask id="mask0_3_482" style="mask-type:alpha" maskUnits="userSpaceOnUse" x="0" y="0" width="20" height="20">
    <rect width="20" height="20" fill="#D9D9D9"/>
    </mask>
    <g mask="url(#mask0_3_482)">
        <path d="M15.7917 7.02082C15.7083 7.02082 15.6285 6.99999 15.5521 6.95832C15.4757 6.91666 15.4167 6.85416 15.375 6.77082L14.7083 5.31249L13.3125 4.66666C13.2153 4.62499 13.1458 4.56596 13.1042 4.48957C13.0625 4.41318 13.0417 4.33332 13.0417 4.24999C13.0417 4.16666 13.0625 4.0868 13.1042 4.01041C13.1458 3.93402 13.2153 3.87499 13.3125 3.83332L14.7083 3.18749L15.375 1.72916C15.4167 1.64582 15.4757 1.58332 15.5521 1.54166C15.6285 1.49999 15.7083 1.47916 15.7917 1.47916C15.875 1.47916 15.9549 1.49999 16.0313 1.54166C16.1077 1.58332 16.1667 1.64582 16.2083 1.72916L16.875 3.18749L18.2708 3.83332C18.3681 3.87499 18.4375 3.93402 18.4792 4.01041C18.5208 4.0868 18.5417 4.16666 18.5417 4.24999C18.5417 4.33332 18.5208 4.41318 18.4792 4.48957C18.4375 4.56596 18.3681 4.62499 18.2708 4.66666L16.875 5.31249L16.2083 6.77082C16.1667 6.85416 16.1077 6.91666 16.0313 6.95832C15.9549 6.99999 15.875 7.02082 15.7917 7.02082ZM15.7917 18.5417C15.7083 18.5417 15.6285 18.5208 15.5521 18.4792C15.4757 18.4375 15.4167 18.368 15.375 18.2708L14.7083 16.8333L13.3125 16.1875C13.2153 16.1458 13.1458 16.0868 13.1042 16.0104C13.0625 15.934 13.0417 15.8542 13.0417 15.7708C13.0417 15.6875 13.0625 15.6076 13.1042 15.5312C13.1458 15.4549 13.2153 15.3958 13.3125 15.3542L14.7083 14.7083L15.375 13.25C15.4167 13.1667 15.4757 13.1042 15.5521 13.0625C15.6285 13.0208 15.7083 13 15.7917 13C15.875 13 15.9549 13.0208 16.0313 13.0625C16.1077 13.1042 16.1667 13.1667 16.2083 13.25L16.875 14.7083L18.2708 15.3542C18.3681 15.3958 18.4375 15.4549 18.4792 15.5312C18.5208 15.6076 18.5417 15.6875 18.5417 15.7708C18.5417 15.8542 18.5208 15.934 18.4792 16.0104C18.4375 16.0868 18.3681 16.1458 18.2708 16.1875L16.875 16.8333L16.2083 18.2708C16.1667 18.368 16.1077 18.4375 16.0313 18.4792C15.9549 18.5208 15.875 18.5417 15.7917 18.5417ZM7.62501 15.5833C7.47223 15.5833 7.31946 15.5382 7.16668 15.4479C7.0139 15.3576 6.90279 15.2292 6.83334 15.0625L5.52084 12.1458L2.58334 10.7917C2.41668 10.7222 2.28821 10.6111 2.19793 10.4583C2.10765 10.3055 2.06946 10.1528 2.08334 9.99999C2.08334 9.84721 2.12501 9.69443 2.20834 9.54166C2.29168 9.38888 2.41668 9.27777 2.58334 9.20832L5.52084 7.87499L6.83334 4.95832C6.90279 4.79166 7.0139 4.66318 7.16668 4.57291C7.31946 4.48263 7.47223 4.43749 7.62501 4.43749C7.77779 4.43749 7.93057 4.47916 8.08334 4.56249C8.23612 4.64582 8.34723 4.77777 8.41668 4.95832L9.75001 7.87499L12.6667 9.20832C12.8472 9.27777 12.9792 9.38888 13.0625 9.54166C13.1458 9.69443 13.1875 9.84721 13.1875 9.99999C13.1875 10.1528 13.1458 10.3055 13.0625 10.4583C12.9792 10.6111 12.8542 10.7222 12.6875 10.7917L9.75001 12.1458L8.41668 15.0625C8.34723 15.243 8.23612 15.375 8.08334 15.4583C7.93057 15.5417 7.77779 15.5833 7.62501 15.5833ZM7.62501 12.5625L8.43751 10.8333L10.1458 9.99999L8.43751 9.18749L7.62501 7.45832L6.83334 9.18749L5.10418 9.99999L6.83334 10.8333L7.62501 12.5625Z" fill="#636366"/>
    </g>
</svg>
