<svg width="20" height="20" viewBox="0 0 20 20" fill="none" xmlns="http://www.w3.org/2000/svg">
    <mask id="mask0_3_110" style="mask-type:alpha" maskUnits="userSpaceOnUse" x="0" y="0" width="20" height="20">
    <rect width="20" height="20" fill="#0A84FF"/>
    </mask>
    <g mask="url(#mask0_3_110)">
        <path d="M6.7544 10C6.54313 10 6.36458 10.0719 6.21875 10.2156C6.07292 10.3594 6 10.5375 6 10.75V13.25C6 13.4625 6.07145 13.6406 6.21435 13.7844C6.35727 13.9281 6.53435 14 6.7456 14C6.95687 14 7.13542 13.9281 7.28125 13.7844C7.42708 13.6406 7.5 13.4625 7.5 13.25V10.75C7.5 10.5375 7.42855 10.3594 7.28565 10.2156C7.14273 10.0719 6.96565 10 6.7544 10ZM13.2544 6C13.0431 6 12.8646 6.07188 12.7188 6.21563C12.5729 6.35938 12.5 6.5375 12.5 6.75V13.25C12.5 13.4625 12.5715 13.6406 12.7144 13.7844C12.8573 13.9281 13.0344 14 13.2456 14C13.4569 14 13.6354 13.9281 13.7812 13.7844C13.9271 13.6406 14 13.4625 14 13.25V6.75C14 6.5375 13.9285 6.35938 13.7856 6.21563C13.6427 6.07188 13.4656 6 13.2544 6ZM10.0044 11C9.79313 11 9.61458 11.0719 9.46875 11.2156C9.32292 11.3594 9.25 11.5375 9.25 11.75V13.25C9.25 13.4625 9.32145 13.6406 9.46435 13.7844C9.60727 13.9281 9.78435 14 9.9956 14C10.2069 14 10.3854 13.9281 10.5312 13.7844C10.6771 13.6406 10.75 13.4625 10.75 13.25V11.75C10.75 11.5375 10.6785 11.3594 10.5356 11.2156C10.3927 11.0719 10.2156 11 10.0044 11ZM4.5 17C4.0875 17 3.73437 16.8531 3.44062 16.5594C3.14687 16.2656 3 15.9125 3 15.5V4.5C3 4.0875 3.14687 3.73437 3.44062 3.44062C3.73437 3.14687 4.0875 3 4.5 3H15.5C15.9125 3 16.2656 3.14687 16.5594 3.44062C16.8531 3.73437 17 4.0875 17 4.5V15.5C17 15.9125 16.8531 16.2656 16.5594 16.5594C16.2656 16.8531 15.9125 17 15.5 17H4.5ZM4.5 15.5H15.5V4.5H4.5V15.5ZM9.9956 10C10.2069 10 10.3854 9.92855 10.5312 9.78565C10.6771 9.64273 10.75 9.46565 10.75 9.2544C10.75 9.04313 10.6785 8.86458 10.5356 8.71875C10.3927 8.57292 10.2156 8.5 10.0044 8.5C9.79313 8.5 9.61458 8.57145 9.46875 8.71435C9.32292 8.85727 9.25 9.03435 9.25 9.2456C9.25 9.45687 9.32145 9.63542 9.46435 9.78125C9.60727 9.92708 9.78435 10 9.9956 10Z" fill="#0A84FF"/>
    </g>
</svg>
